# xmcd
#
# Track frame offsets:
#	182
#	16077
#	34217
#	51915
#	67130
#
# Disc length: 1135 seconds
#
# Revision: 0
# Processed by: cddbd v1.4PL0 Copyright (c) Steve Scherf et al.
# Submitted via: EasyCDDAExtractor 5.0.0.0
#
DISCID=3f046d05
DTITLE=Crystal Waters - Say..If You Feel Alright
DYEAR=1900
DGENRE=
TTITLE0=Say..If You Feel Alright(Radio Edit)
TTITLE1=Say..If You Feel Alright(Jam And Lewis Club Edit)
TTITLE2=Say..If You Feel Alright(Can You Feel It Radio Edit)
TTITLE3=Say..If You Feel Alright(X-MIX Radio Edit)
TTITLE4=Say..If You Feel Alright(Johnny ''D'' Radio Mix)
EXTD=
EXTT0=
EXTT1=
EXTT2=
EXTT3=
EXTT4=
PLAYORDER=
